<svg width="36" height="35" viewBox="0 0 36 35" fill="none" xmlns="http://www.w3.org/2000/svg">
<path d="M11.9995 34.7222C13.5336 34.7222 14.7772 33.4786 14.7772 31.9444C14.7772 30.4103 13.5336 29.1667 11.9995 29.1667C10.4653 29.1667 9.22168 30.4103 9.22168 31.9444C9.22168 33.4786 10.4653 34.7222 11.9995 34.7222Z" fill="black"/>
<path d="M26.4438 34.7222C27.9779 34.7222 29.2216 33.4786 29.2216 31.9444C29.2216 30.4103 27.9779 29.1667 26.4438 29.1667C24.9097 29.1667 23.666 30.4103 23.666 31.9444C23.666 33.4786 24.9097 34.7222 26.4438 34.7222Z" fill="black"/>
<path d="M30.3326 14.1667C28.1224 14.1667 26.0028 13.2887 24.44 11.7259C22.8772 10.1631 21.9992 8.04347 21.9992 5.83334H7.23256L6.73256 4.24445C6.67764 4.07384 6.58226 3.91906 6.45456 3.7933C6.32687 3.66754 6.17065 3.57454 5.99923 3.52222L1.44367 2.12222C1.3036 2.07918 1.15641 2.06415 1.01053 2.07798C0.86464 2.09182 0.722907 2.13426 0.593421 2.20287C0.331912 2.34144 0.13616 2.57822 0.0492275 2.86111C-0.0377046 3.14401 -0.00869547 3.44986 0.129873 3.71136C0.268442 3.97287 0.505219 4.16863 0.788117 4.25556L4.77701 5.47778L9.86589 21.5556L8.05478 23.0444L7.91034 23.1889C7.46245 23.7075 7.20869 24.3657 7.19248 25.0507C7.17626 25.7358 7.3986 26.4052 7.82145 26.9444C8.12429 27.3127 8.50913 27.605 8.94516 27.798C9.3812 27.9909 9.85633 28.0791 10.3326 28.0556H28.877C29.1717 28.0556 29.4543 27.9385 29.6627 27.7301C29.8711 27.5217 29.9881 27.2391 29.9881 26.9444C29.9881 26.6498 29.8711 26.3671 29.6627 26.1588C29.4543 25.9504 29.1717 25.8333 28.877 25.8333H10.1548C10.0268 25.829 9.90218 25.7917 9.79285 25.7251C9.68352 25.6584 9.59322 25.5648 9.53067 25.4531C9.46811 25.3414 9.43543 25.2154 9.43576 25.0874C9.43609 24.9594 9.46943 24.8336 9.53256 24.7222L12.2103 22.5H29.3548C29.6086 22.5074 29.8573 22.4276 30.0595 22.274C30.2616 22.1203 30.4051 21.9021 30.4659 21.6556L32.3659 13.8778C31.7026 14.0577 31.0197 14.1547 30.3326 14.1667V14.1667Z" fill="black"/>
<path d="M30.3329 11.3889C33.4012 11.3889 35.8885 8.90158 35.8885 5.83333C35.8885 2.76508 33.4012 0.277771 30.3329 0.277771C27.2647 0.277771 24.7773 2.76508 24.7773 5.83333C24.7773 8.90158 27.2647 11.3889 30.3329 11.3889Z" fill="#EABF9F"/>
</svg>
