<svg width="36" height="35" viewBox="0 0 36 35" fill="none" xmlns="http://www.w3.org/2000/svg">
<path d="M30.2315 26.0996C29.5868 24.5724 28.6511 23.1851 27.4766 22.0151C26.3058 20.8418 24.9187 19.9063 23.3922 19.2603C23.3785 19.2534 23.3648 19.25 23.3512 19.2432C25.4806 17.7051 26.8648 15.1997 26.8648 12.373C26.8648 7.69043 23.0709 3.89648 18.3883 3.89648C13.7057 3.89648 9.91171 7.69043 9.91171 12.373C9.91171 15.1997 11.296 17.7051 13.4254 19.2466C13.4117 19.2534 13.398 19.2568 13.3844 19.2637C11.8531 19.9097 10.4791 20.8359 9.29989 22.0186C8.12653 23.1894 7.19102 24.5765 6.54501 26.103C5.91037 27.5975 5.56809 29.1999 5.53671 30.8232C5.53579 30.8597 5.54219 30.896 5.55553 30.93C5.56886 30.964 5.58885 30.9949 5.61434 31.021C5.63982 31.0471 5.67027 31.0679 5.7039 31.0821C5.73753 31.0962 5.77365 31.1035 5.81014 31.1035H7.86093C8.01132 31.1035 8.13094 30.9839 8.13436 30.8369C8.20272 28.1982 9.26229 25.7271 11.1353 23.854C13.0733 21.916 15.6471 20.8496 18.3883 20.8496C21.1295 20.8496 23.7032 21.916 25.6412 23.854C27.5142 25.7271 28.5738 28.1982 28.6422 30.8369C28.6456 30.9873 28.7652 31.1035 28.9156 31.1035H30.9664C31.0029 31.1035 31.039 31.0962 31.0726 31.0821C31.1063 31.0679 31.1367 31.0471 31.1622 31.021C31.1877 30.9949 31.2077 30.964 31.221 30.93C31.2343 30.896 31.2407 30.8597 31.2398 30.8232C31.2057 29.1895 30.8673 27.6001 30.2315 26.0996V26.0996ZM18.3883 18.252C16.8194 18.252 15.3429 17.6401 14.232 16.5293C13.1212 15.4185 12.5094 13.9419 12.5094 12.373C12.5094 10.8042 13.1212 9.32764 14.232 8.2168C15.3429 7.10596 16.8194 6.49414 18.3883 6.49414C19.9571 6.49414 21.4337 7.10596 22.5445 8.2168C23.6554 9.32764 24.2672 10.8042 24.2672 12.373C24.2672 13.9419 23.6554 15.4185 22.5445 16.5293C21.4337 17.6401 19.9571 18.252 18.3883 18.252Z" fill="black"/>
</svg>
